# xmcd
#
# Track frame offsets: 
#        150
#        13732
#        24882
#        41802
#        58072
#        73942
#        93367
#        106260
#        122052
#        145195
#        170075
#
# Disc length: 2538 seconds
#
# Revision: 1
# Processed by: cddbd v1.5.2PL0 Copyright (c) Steve Scherf et al.
# Submitted via: ExactAudioCopy v1.0b4
#
DISCID=9809e80b
DTITLE=財津和夫 - CALL
DYEAR=1992
DGENRE=J/Pop
TTITLE0=銀の指環
TTITLE1=ハーモニー
TTITLE2=ぼくがつくった愛のうた
TTITLE3=WELCOME TO MY HOUSE
TTITLE4=逆回転
TTITLE5=一人の部屋
TTITLE6=そんな時
TTITLE7=魔法の黄色い靴
TTITLE8=サボテンの花
TTITLE9=心の旅
TTITLE10=誰が許すの 君のわがままを
EXTD=YEAR: 1992 ID3G: 13
EXTT0=
EXTT1=
EXTT2=
EXTT3=
EXTT4=
EXTT5=
EXTT6=
EXTT7=
EXTT8=
EXTT9=
EXTT10=
PLAYORDER=
